<?xml version="1.0" encoding="UTF-8" standalone="no"?>
<!-- Created with Inkscape (http://www.inkscape.org/) -->

<svg
   xmlns:dc="http://purl.org/dc/elements/1.1/"
   xmlns:cc="http://creativecommons.org/ns#"
   xmlns:rdf="http://www.w3.org/1999/02/22-rdf-syntax-ns#"
   xmlns:svg="http://www.w3.org/2000/svg"
   xmlns="http://www.w3.org/2000/svg"
   xmlns:sodipodi="http://sodipodi.sourceforge.net/DTD/sodipodi-0.dtd"
   xmlns:inkscape="http://www.inkscape.org/namespaces/inkscape"
   width="128mm"
   height="128mm"
   viewBox="0 0 128 128"
   version="1.1"
   id="svg8"
   sodipodi:docname="2nd.svg"
   inkscape:version="0.92.5 (2060ec1f9f, 2020-04-08)">
  <defs
     id="defs2" />
  <sodipodi:namedview
     id="base"
     pagecolor="#ffffff"
     bordercolor="#666666"
     borderopacity="1.0"
     inkscape:pageopacity="0.0"
     inkscape:pageshadow="2"
     inkscape:zoom="0.7"
     inkscape:cx="204.07206"
     inkscape:cy="182.7638"
     inkscape:document-units="mm"
     inkscape:current-layer="layer1"
     showgrid="false"
     inkscape:snap-page="true"
     inkscape:snap-text-baseline="true"
     inkscape:snap-bbox="true"
     inkscape:bbox-paths="true"
     inkscape:bbox-nodes="true"
     inkscape:snap-bbox-edge-midpoints="true"
     inkscape:snap-bbox-midpoints="true"
     inkscape:snap-global="true"
     inkscape:window-width="1297"
     inkscape:window-height="704"
     inkscape:window-x="69"
     inkscape:window-y="27"
     inkscape:window-maximized="1"
     inkscape:object-paths="true"
     inkscape:snap-intersection-paths="true"
     inkscape:snap-smooth-nodes="true"
     inkscape:snap-midpoints="true"
     inkscape:snap-object-midpoints="true"
     inkscape:snap-center="true" />
  <metadata
     id="metadata5">
    <rdf:RDF>
      <cc:Work
         rdf:about="">
        <dc:format>image/svg+xml</dc:format>
        <dc:type
           rdf:resource="http://purl.org/dc/dcmitype/StillImage" />
        <dc:title />
      </cc:Work>
    </rdf:RDF>
  </metadata>
  <g
     inkscape:label="Camada 1"
     inkscape:groupmode="layer"
     id="layer1"
     transform="translate(0,-169)">
    <circle
       style="color:#000000;clip-rule:nonzero;display:inline;overflow:visible;visibility:visible;opacity:1;isolation:auto;mix-blend-mode:normal;color-interpolation:sRGB;color-interpolation-filters:linearRGB;solid-color:#000000;solid-opacity:1;vector-effect:none;fill:#627178;fill-opacity:1;fill-rule:evenodd;stroke:none;stroke-width:1.16499996;stroke-linecap:round;stroke-linejoin:miter;stroke-miterlimit:4;stroke-dasharray:none;stroke-dashoffset:0;stroke-opacity:1;paint-order:fill markers stroke;color-rendering:auto;image-rendering:auto;shape-rendering:auto;text-rendering:auto;enable-background:accumulate"
       id="path826"
       cx="64"
       cy="233"
       r="63.999996" />
    <circle
       style="color:#000000;clip-rule:nonzero;display:inline;overflow:visible;visibility:visible;opacity:1;isolation:auto;mix-blend-mode:normal;color-interpolation:sRGB;color-interpolation-filters:linearRGB;solid-color:#000000;solid-opacity:1;vector-effect:none;fill:#cdd7de;fill-opacity:1;fill-rule:evenodd;stroke:none;stroke-width:0.88978606;stroke-linecap:round;stroke-linejoin:miter;stroke-miterlimit:4;stroke-dasharray:none;stroke-dashoffset:0;stroke-opacity:1;paint-order:fill markers stroke;color-rendering:auto;image-rendering:auto;shape-rendering:auto;text-rendering:auto;enable-background:accumulate"
       id="path826-3"
       cx="64"
       cy="233"
       r="48.880947" />
    <g
       aria-label="2"
       transform="matrix(2.2257743,0,0,2.2257743,265.1827,99.99572)"
       style="font-style:normal;font-variant:normal;font-weight:bold;font-stretch:normal;font-size:40px;line-height:125%;font-family:Ubuntu;-inkscape-font-specification:'Ubuntu Bold';letter-spacing:0px;word-spacing:0px;fill:#627178;fill-opacity:1;stroke:none;stroke-width:1px;stroke-linecap:butt;stroke-linejoin:miter;stroke-opacity:1"
       id="flowRoot819">
      <path
         d="m -81.587734,53.496407 q 0,1.52 -0.6,2.92 -0.6,1.4 -1.56,2.72 -0.96,1.28 -2.16,2.48 -1.2,1.2 -2.36,2.28 -0.6,0.56 -1.32,1.28 -0.68,0.68 -1.32,1.4 -0.64,0.72 -1.16,1.36 -0.48,0.6 -0.6,1 h 11.92 v 5 h -18.48 q -0.08,-0.44 -0.08,-1.12 0,-0.68 0,-0.96 0,-1.92 0.6,-3.52 0.64,-1.6 1.64,-2.96 1,-1.4 2.24,-2.6 1.28,-1.2 2.52,-2.4 0.96,-0.92 1.8,-1.72 0.84,-0.84 1.48,-1.6 0.64,-0.8 1,-1.56 0.36,-0.8 0.36,-1.6 0,-1.76 -1,-2.48 -1,-0.72 -2.48,-0.72 -1.08,0 -2.04,0.36 -0.92,0.32 -1.72,0.8 -0.76,0.44 -1.32,0.92 -0.56,0.44 -0.84,0.72 l -2.959996,-4.16 q 1.759996,-1.64 4.079996,-2.68 2.36,-1.08 5.04,-1.08 2.44,0 4.2,0.56 1.76,0.56 2.88,1.6 1.16,1 1.68,2.48 0.56,1.44 0.56,3.28 z"
         style=""
         id="path818" />
    </g>
  </g>
</svg>
