<?xml version="1.0" encoding="UTF-8" standalone="no"?>
<!-- Created with Inkscape (http://www.inkscape.org/) -->

<svg
   xmlns:dc="http://purl.org/dc/elements/1.1/"
   xmlns:cc="http://creativecommons.org/ns#"
   xmlns:rdf="http://www.w3.org/1999/02/22-rdf-syntax-ns#"
   xmlns:svg="http://www.w3.org/2000/svg"
   xmlns="http://www.w3.org/2000/svg"
   xmlns:sodipodi="http://sodipodi.sourceforge.net/DTD/sodipodi-0.dtd"
   xmlns:inkscape="http://www.inkscape.org/namespaces/inkscape"
   width="128mm"
   height="128mm"
   viewBox="0 0 128 128"
   version="1.1"
   id="svg8"
   sodipodi:docname="wifiwarrior.svg"
   inkscape:version="0.92.5 (2060ec1f9f, 2020-04-08)">
  <defs
     id="defs2" />
  <sodipodi:namedview
     id="base"
     pagecolor="#ffffff"
     bordercolor="#666666"
     borderopacity="1.0"
     inkscape:pageopacity="0.0"
     inkscape:pageshadow="2"
     inkscape:zoom="0.7"
     inkscape:cx="166.46816"
     inkscape:cy="221.83579"
     inkscape:document-units="mm"
     inkscape:current-layer="layer1"
     showgrid="false"
     inkscape:snap-page="true"
     inkscape:snap-text-baseline="true"
     inkscape:snap-bbox="true"
     inkscape:bbox-paths="true"
     inkscape:bbox-nodes="true"
     inkscape:snap-bbox-edge-midpoints="true"
     inkscape:snap-bbox-midpoints="true"
     inkscape:snap-global="false"
     inkscape:window-width="1297"
     inkscape:window-height="704"
     inkscape:window-x="69"
     inkscape:window-y="27"
     inkscape:window-maximized="1"
     inkscape:object-paths="true"
     inkscape:snap-intersection-paths="true"
     inkscape:snap-smooth-nodes="true"
     inkscape:snap-midpoints="true"
     inkscape:snap-object-midpoints="true"
     inkscape:snap-center="true" />
  <metadata
     id="metadata5">
    <rdf:RDF>
      <cc:Work
         rdf:about="">
        <dc:format>image/svg+xml</dc:format>
        <dc:type
           rdf:resource="http://purl.org/dc/dcmitype/StillImage" />
        <dc:title />
      </cc:Work>
    </rdf:RDF>
  </metadata>
  <g
     inkscape:label="Camada 1"
     inkscape:groupmode="layer"
     id="layer1"
     transform="translate(0,-169)">
    <circle
       style="color:#000000;clip-rule:nonzero;display:inline;overflow:visible;visibility:visible;opacity:1;isolation:auto;mix-blend-mode:normal;color-interpolation:sRGB;color-interpolation-filters:linearRGB;solid-color:#000000;solid-opacity:1;vector-effect:none;fill:#e29623;fill-opacity:1;fill-rule:evenodd;stroke:none;stroke-width:1.16499996;stroke-linecap:round;stroke-linejoin:miter;stroke-miterlimit:4;stroke-dasharray:none;stroke-dashoffset:0;stroke-opacity:1;paint-order:fill markers stroke;color-rendering:auto;image-rendering:auto;shape-rendering:auto;text-rendering:auto;enable-background:accumulate"
       id="path826"
       cx="64"
       cy="233"
       r="63.999996" />
    <circle
       style="color:#000000;clip-rule:nonzero;display:inline;overflow:visible;visibility:visible;opacity:1;isolation:auto;mix-blend-mode:normal;color-interpolation:sRGB;color-interpolation-filters:linearRGB;solid-color:#000000;solid-opacity:1;vector-effect:none;fill:#ffd830;fill-opacity:1;fill-rule:evenodd;stroke:none;stroke-width:0.88978606;stroke-linecap:round;stroke-linejoin:miter;stroke-miterlimit:4;stroke-dasharray:none;stroke-dashoffset:0;stroke-opacity:1;paint-order:fill markers stroke;color-rendering:auto;image-rendering:auto;shape-rendering:auto;text-rendering:auto;enable-background:accumulate"
       id="path826-3"
       cx="64"
       cy="233"
       r="48.880947" />
    <path
       inkscape:connector-curvature="0"
       style="fill:#e29623;fill-opacity:1;stroke-width:0.12426676"
       d="m 103.13276,220.43415 c -22.016341,-20.36359 -56.258047,-20.35614 -78.265691,0 -0.827616,0.76548 -0.843772,2.06158 -0.04349,2.85565 l 4.254894,4.22134 c 0.762998,0.75803 1.990753,0.77419 2.783576,0.0472 18.133006,-16.61198 46.140248,-16.61571 64.276982,0 0.792819,0.72697 2.020576,0.70956 2.783574,-0.0472 l 4.254895,-4.22134 c 0.79903,-0.79407 0.78288,-2.09017 -0.0447,-2.85565 z m -39.132844,24.49546 c -4.392831,0 -7.953074,3.56024 -7.953074,7.95307 0,4.39284 3.560243,7.95308 7.953074,7.95308 4.39283,0 7.953075,-3.56024 7.953075,-7.95308 0,-4.39283 -3.560245,-7.95307 -7.953075,-7.95307 z m 25.185146,-10.38745 c -14.32299,-12.66652 -36.063459,-12.65285 -50.370291,0 -0.857441,0.75802 -0.88478,2.074 -0.07084,2.87677 l 4.279748,4.22383 c 0.7456,0.73565 1.946017,0.78536 2.740082,0.0994 10.432194,-9.01804 26.063712,-8.99815 36.471052,0 0.794066,0.68595 1.99448,0.63749 2.740081,-0.0994 l 4.279747,-4.22383 c 0.815192,-0.80277 0.786612,-2.11999 -0.06959,-2.87677 z"
       id="path2" />
  </g>
</svg>
