<?xml version="1.0" encoding="UTF-8" standalone="no"?>
<!-- Created with Inkscape (http://www.inkscape.org/) -->

<svg
   xmlns:dc="http://purl.org/dc/elements/1.1/"
   xmlns:cc="http://creativecommons.org/ns#"
   xmlns:rdf="http://www.w3.org/1999/02/22-rdf-syntax-ns#"
   xmlns:svg="http://www.w3.org/2000/svg"
   xmlns="http://www.w3.org/2000/svg"
   xmlns:sodipodi="http://sodipodi.sourceforge.net/DTD/sodipodi-0.dtd"
   xmlns:inkscape="http://www.inkscape.org/namespaces/inkscape"
   width="128mm"
   height="128mm"
   viewBox="0 0 128 128"
   version="1.1"
   id="svg8"
   sodipodi:docname="3rd.svg"
   inkscape:version="0.92.5 (2060ec1f9f, 2020-04-08)">
  <defs
     id="defs2" />
  <sodipodi:namedview
     id="base"
     pagecolor="#ffffff"
     bordercolor="#666666"
     borderopacity="1.0"
     inkscape:pageopacity="0.0"
     inkscape:pageshadow="2"
     inkscape:zoom="0.7"
     inkscape:cx="155.81593"
     inkscape:cy="180.27544"
     inkscape:document-units="mm"
     inkscape:current-layer="layer1"
     showgrid="false"
     inkscape:snap-page="true"
     inkscape:snap-text-baseline="true"
     inkscape:snap-bbox="true"
     inkscape:bbox-paths="true"
     inkscape:bbox-nodes="true"
     inkscape:snap-bbox-edge-midpoints="true"
     inkscape:snap-bbox-midpoints="true"
     inkscape:snap-global="true"
     inkscape:window-width="1297"
     inkscape:window-height="704"
     inkscape:window-x="69"
     inkscape:window-y="27"
     inkscape:window-maximized="1"
     inkscape:object-paths="true"
     inkscape:snap-intersection-paths="true"
     inkscape:snap-smooth-nodes="true"
     inkscape:snap-midpoints="true"
     inkscape:snap-object-midpoints="true"
     inkscape:snap-center="true" />
  <metadata
     id="metadata5">
    <rdf:RDF>
      <cc:Work
         rdf:about="">
        <dc:format>image/svg+xml</dc:format>
        <dc:type
           rdf:resource="http://purl.org/dc/dcmitype/StillImage" />
        <dc:title />
      </cc:Work>
    </rdf:RDF>
  </metadata>
  <g
     inkscape:label="Camada 1"
     inkscape:groupmode="layer"
     id="layer1"
     transform="translate(0,-169)">
    <circle
       style="color:#000000;clip-rule:nonzero;display:inline;overflow:visible;visibility:visible;opacity:1;isolation:auto;mix-blend-mode:normal;color-interpolation:sRGB;color-interpolation-filters:linearRGB;solid-color:#000000;solid-opacity:1;vector-effect:none;fill:#7d3f12;fill-opacity:1;fill-rule:evenodd;stroke:none;stroke-width:1.16499996;stroke-linecap:round;stroke-linejoin:miter;stroke-miterlimit:4;stroke-dasharray:none;stroke-dashoffset:0;stroke-opacity:1;paint-order:fill markers stroke;color-rendering:auto;image-rendering:auto;shape-rendering:auto;text-rendering:auto;enable-background:accumulate"
       id="path826"
       cx="64"
       cy="233"
       r="63.999996" />
    <circle
       style="color:#000000;clip-rule:nonzero;display:inline;overflow:visible;visibility:visible;opacity:1;isolation:auto;mix-blend-mode:normal;color-interpolation:sRGB;color-interpolation-filters:linearRGB;solid-color:#000000;solid-opacity:1;vector-effect:none;fill:#ff8b38;fill-opacity:1;fill-rule:evenodd;stroke:none;stroke-width:0.88978606;stroke-linecap:round;stroke-linejoin:miter;stroke-miterlimit:4;stroke-dasharray:none;stroke-dashoffset:0;stroke-opacity:1;paint-order:fill markers stroke;color-rendering:auto;image-rendering:auto;shape-rendering:auto;text-rendering:auto;enable-background:accumulate"
       id="path826-3"
       cx="64"
       cy="233"
       r="48.880947" />
    <g
       aria-label="3"
       transform="matrix(2.2257743,0,0,2.2257743,266.11752,99.327994)"
       style="font-style:normal;font-variant:normal;font-weight:bold;font-stretch:normal;font-size:40px;line-height:125%;font-family:Ubuntu;-inkscape-font-specification:'Ubuntu Bold';letter-spacing:0px;word-spacing:0px;fill:#7d3f12;fill-opacity:1;stroke:none;stroke-width:1px;stroke-linecap:butt;stroke-linejoin:miter;stroke-opacity:1"
       id="flowRoot819">
      <path
         d="m -92.307734,74.536407 q -1.08,0 -2.28,-0.16 -1.2,-0.12 -2.32,-0.36 -1.12,-0.24 -2.04,-0.52 -0.92,-0.28 -1.439996,-0.52 l 1.159996,-4.96 q 1.04,0.44 2.64,0.96 1.64,0.48 4.04,0.48 2.76,0 4.04,-1.04 1.28,-1.04 1.28,-2.8 0,-1.08 -0.48,-1.8 -0.44,-0.76 -1.24,-1.2 -0.8,-0.48 -1.92,-0.64 -1.08,-0.2 -2.32,-0.2 h -2.32 v -4.8 h 2.64 q 0.88,0 1.68,-0.16 0.84,-0.16 1.48,-0.52 0.64,-0.4 1,-1.04 0.4,-0.68 0.4,-1.68 0,-0.76 -0.32,-1.32 -0.32,-0.56 -0.84,-0.92 -0.48,-0.36 -1.16,-0.52 -0.64,-0.2 -1.32,-0.2 -1.72,0 -3.2,0.52 -1.44,0.52 -2.64,1.28 l -2.12,-4.36 q 0.64,-0.4 1.48,-0.84 0.88,-0.44 1.92,-0.8 1.04,-0.36 2.2,-0.6 1.2,-0.24 2.52,-0.24 2.44,0 4.2,0.6 1.8,0.56 2.96,1.64 1.16,1.04 1.72,2.48 0.56,1.4 0.56,3.08 0,1.64 -0.92,3.2 -0.92,1.52 -2.48,2.32 2.16,0.88 3.32,2.64 1.2,1.72 1.2,4.16 0,1.92 -0.64,3.56 -0.64,1.6 -2,2.8 -1.36,1.16 -3.48,1.84 -2.08,0.64 -4.96,0.64 z"
         style=""
         id="path827" />
    </g>
  </g>
</svg>
