<?xml version="1.0" encoding="UTF-8" standalone="no"?>
<!-- Created with Inkscape (http://www.inkscape.org/) -->

<svg
   xmlns:dc="http://purl.org/dc/elements/1.1/"
   xmlns:cc="http://creativecommons.org/ns#"
   xmlns:rdf="http://www.w3.org/1999/02/22-rdf-syntax-ns#"
   xmlns:svg="http://www.w3.org/2000/svg"
   xmlns="http://www.w3.org/2000/svg"
   xmlns:sodipodi="http://sodipodi.sourceforge.net/DTD/sodipodi-0.dtd"
   xmlns:inkscape="http://www.inkscape.org/namespaces/inkscape"
   width="128mm"
   height="128mm"
   viewBox="0 0 128 128"
   version="1.1"
   id="svg8"
   sodipodi:docname="top8.svg"
   inkscape:version="0.92.5 (2060ec1f9f, 2020-04-08)">
  <defs
     id="defs2" />
  <sodipodi:namedview
     id="base"
     pagecolor="#ffffff"
     bordercolor="#666666"
     borderopacity="1.0"
     inkscape:pageopacity="0.0"
     inkscape:pageshadow="2"
     inkscape:zoom="0.49497475"
     inkscape:cx="181.3975"
     inkscape:cy="192.1906"
     inkscape:document-units="mm"
     inkscape:current-layer="g932"
     showgrid="false"
     inkscape:snap-page="true"
     inkscape:snap-text-baseline="true"
     inkscape:snap-bbox="true"
     inkscape:bbox-paths="true"
     inkscape:bbox-nodes="true"
     inkscape:snap-bbox-edge-midpoints="true"
     inkscape:snap-bbox-midpoints="true"
     inkscape:snap-global="true"
     inkscape:window-width="1297"
     inkscape:window-height="704"
     inkscape:window-x="69"
     inkscape:window-y="27"
     inkscape:window-maximized="1"
     inkscape:object-paths="true"
     inkscape:snap-intersection-paths="true"
     inkscape:snap-smooth-nodes="true"
     inkscape:snap-midpoints="true"
     inkscape:snap-object-midpoints="true"
     inkscape:snap-center="true" />
  <metadata
     id="metadata5">
    <rdf:RDF>
      <cc:Work
         rdf:about="">
        <dc:format>image/svg+xml</dc:format>
        <dc:type
           rdf:resource="http://purl.org/dc/dcmitype/StillImage" />
        <dc:title />
      </cc:Work>
    </rdf:RDF>
  </metadata>
  <g
     inkscape:label="Camada 1"
     inkscape:groupmode="layer"
     id="layer1"
     transform="translate(0,-169)">
    <circle
       style="color:#000000;clip-rule:nonzero;display:inline;overflow:visible;visibility:visible;opacity:1;isolation:auto;mix-blend-mode:normal;color-interpolation:sRGB;color-interpolation-filters:linearRGB;solid-color:#000000;solid-opacity:1;vector-effect:none;fill:#12527d;fill-opacity:1;fill-rule:evenodd;stroke:none;stroke-width:1.16499996;stroke-linecap:round;stroke-linejoin:miter;stroke-miterlimit:4;stroke-dasharray:none;stroke-dashoffset:0;stroke-opacity:1;paint-order:fill markers stroke;color-rendering:auto;image-rendering:auto;shape-rendering:auto;text-rendering:auto;enable-background:accumulate"
       id="path826"
       cx="64"
       cy="233"
       r="63.999996" />
    <circle
       style="color:#000000;clip-rule:nonzero;display:inline;overflow:visible;visibility:visible;opacity:1;isolation:auto;mix-blend-mode:normal;color-interpolation:sRGB;color-interpolation-filters:linearRGB;solid-color:#000000;solid-opacity:1;vector-effect:none;fill:#38c1ff;fill-opacity:1;fill-rule:evenodd;stroke:none;stroke-width:0.88978606;stroke-linecap:round;stroke-linejoin:miter;stroke-miterlimit:4;stroke-dasharray:none;stroke-dashoffset:0;stroke-opacity:1;paint-order:fill markers stroke;color-rendering:auto;image-rendering:auto;shape-rendering:auto;text-rendering:auto;enable-background:accumulate"
       id="path826-3"
       cx="64"
       cy="233"
       r="48.880947" />
    <g
       id="g932"
       transform="translate(4.0970292e-6,4.5327353)">
      <g
         aria-label="8"
         transform="matrix(1.7808748,0,0,1.7808748,224.36374,132.51592)"
         style="font-style:normal;font-variant:normal;font-weight:bold;font-stretch:normal;font-size:40px;line-height:125%;font-family:Ubuntu;-inkscape-font-specification:'Ubuntu Bold';letter-spacing:0px;word-spacing:0px;fill:#12527d;fill-opacity:1;stroke:none;stroke-width:1px;stroke-linecap:butt;stroke-linejoin:miter;stroke-opacity:1"
         id="flowRoot819">
        <path
           d="m -80.227734,66.216407 q 0,1.8 -0.64,3.32 -0.6,1.48 -1.84,2.6 -1.24,1.12 -3.12,1.76 -1.84,0.6 -4.28,0.6 -2.8,0 -4.68,-0.76 -1.84,-0.8 -3,-1.96 -1.12,-1.16 -1.6,-2.52 -0.48,-1.4 -0.48,-2.56 0,-1.2 0.32,-2.2 0.32,-1 0.88,-1.8 0.56,-0.84 1.24,-1.52 0.72,-0.68 1.52,-1.28 -1.72,-1.4 -2.56,-2.76 -0.8,-1.36 -0.8,-3.48 0,-1.6 0.64,-3.08 0.68,-1.48 1.88,-2.56 1.2,-1.12 2.88,-1.76 1.72,-0.68 3.8,-0.68 2.44,0 4.16,0.72 1.76,0.68 2.88,1.76 1.12,1.08 1.6,2.44 0.52,1.32 0.52,2.64 0,1.92 -1.04,3.6 -1,1.64 -2.52,2.6 2.28,1.48 3.24,3.12 1,1.6 1,3.76 z m -13.84,0.24 q 0,0.48 0.2,1.08 0.24,0.56 0.72,1.04 0.48,0.48 1.24,0.8 0.76,0.32 1.84,0.32 2.08,0 3.04,-1 0.96,-1 0.96,-2.24 0,-0.92 -0.44,-1.64 -0.4,-0.72 -1.12,-1.24 -0.72,-0.56 -1.72,-0.96 -0.96,-0.44 -2.08,-0.8 -1.12,0.84 -1.88,1.96 -0.76,1.12 -0.76,2.68 z m 7.4,-13.16 q 0,-0.44 -0.2,-0.92 -0.16,-0.52 -0.6,-0.96 -0.4,-0.44 -1.04,-0.72 -0.64,-0.32 -1.56,-0.32 -0.88,0 -1.52,0.28 -0.64,0.28 -1.08,0.76 -0.4,0.44 -0.6,0.96 -0.2,0.52 -0.2,1 0,1.28 0.92,2.4 0.96,1.12 3.24,1.92 1.28,-0.8 1.96,-1.84 0.68,-1.04 0.68,-2.56 z"
           style=""
           id="path25" />
      </g>
      <g
         aria-label="TOP"
         transform="matrix(5.1150943,0,0,5.1150943,556.73954,-168.04812)"
         style="font-style:normal;font-variant:normal;font-weight:bold;font-stretch:normal;font-size:40px;line-height:125%;font-family:Ubuntu;-inkscape-font-specification:'Ubuntu Bold';letter-spacing:0px;word-spacing:0px;fill:#12527d;fill-opacity:1;stroke:none;stroke-width:1px;stroke-linecap:butt;stroke-linejoin:miter;stroke-opacity:1"
         id="flowRoot819-5">
        <path
           d="m -98.41503,70.421585 v 0.674562 h -1.060026 v 2.84026 h -0.791214 v -2.84026 h -1.06003 v -0.674562 z"
           style="font-size:5.07189274px;fill:#12527d;fill-opacity:1"
           id="path18" />
        <path
           d="m -97.360088,72.17646 q 0,0.258666 0.06086,0.466614 0.06593,0.207948 0.182588,0.360104 0.121725,0.147085 0.294169,0.228235 0.172445,0.08115 0.395608,0.08115 0.218091,0 0.390536,-0.08115 0.177516,-0.08115 0.29417,-0.228235 0.121725,-0.152156 0.182588,-0.360104 0.06593,-0.207948 0.06593,-0.466614 0,-0.258667 -0.06593,-0.466614 -0.06086,-0.21302 -0.182588,-0.360105 -0.116654,-0.152157 -0.29417,-0.233307 -0.172445,-0.08115 -0.390536,-0.08115 -0.223163,0 -0.395608,0.08622 -0.172444,0.08115 -0.294169,0.233307 -0.116654,0.147085 -0.182588,0.360105 -0.06086,0.207947 -0.06086,0.461542 z m 2.683031,0 q 0,0.451398 -0.136941,0.796287 -0.131869,0.339817 -0.365176,0.573124 -0.233307,0.228235 -0.557909,0.344889 -0.319529,0.116653 -0.689777,0.116653 -0.360104,0 -0.679634,-0.116653 -0.319529,-0.116654 -0.557908,-0.344889 -0.238379,-0.233307 -0.37532,-0.573124 -0.136941,-0.344889 -0.136941,-0.796287 0,-0.451399 0.142013,-0.791215 0.142013,-0.344889 0.380392,-0.578196 0.243451,-0.233307 0.557908,-0.349961 0.319529,-0.116653 0.66949,-0.116653 0.360104,0 0.679634,0.116653 0.319529,0.116654 0.557908,0.349961 0.238379,0.233307 0.37532,0.578196 0.136941,0.339816 0.136941,0.791215 z"
           style="font-size:5.07189274px;fill:#12527d;fill-opacity:1"
           id="path20" />
        <path
           d="m -92.962763,70.38101 q 0.786144,0 1.207111,0.278954 0.420967,0.273882 0.420967,0.902797 0,0.633986 -0.426039,0.918012 -0.426039,0.278954 -1.217254,0.278954 h -0.248523 v 1.17668 h -0.791215 v -3.464103 q 0.258666,-0.05072 0.547764,-0.07101 0.289098,-0.02029 0.507189,-0.02029 z m 0.05072,0.674561 q -0.08622,0 -0.172444,0.0051 -0.08115,0.0051 -0.142013,0.01014 v 1.014379 h 0.248523 q 0.410823,0 0.618771,-0.111582 0.207947,-0.111582 0.207947,-0.415895 0,-0.147085 -0.05579,-0.243451 -0.05072,-0.09637 -0.152156,-0.152157 -0.09637,-0.06086 -0.238379,-0.08115 -0.142013,-0.02536 -0.314458,-0.02536 z"
           style="font-size:5.07189274px;fill:#12527d;fill-opacity:1"
           id="path22" />
      </g>
    </g>
  </g>
</svg>
